# Blender v2.82 (sub 7) OBJ File: ''
# www.blender.org
o Circle
v 0.195089 0.980786 0.000000
v 0.382682 0.923880 0.000000
v 0.555569 0.831470 0.000000
v 0.707106 0.707108 0.000000
v 0.831469 0.555571 0.000000
v 0.923879 0.382684 0.000000
v 0.980785 0.195091 0.000000
v 1.000000 0.000001 0.000000
v 0.980785 -0.195089 -0.000000
v 0.923880 -0.382683 -0.000000
v 0.831470 -0.555570 -0.000000
v 0.707107 -0.707106 -0.000000
v 0.555571 -0.831469 -0.000000
v 0.382684 -0.923879 -0.000000
v 0.195091 -0.980785 -0.000000
v 0.000000 -1.000000 -0.000000
v -0.195090 -0.980785 -0.000000
v -0.382683 -0.923880 -0.000000
v -0.555570 -0.831470 -0.000000
v -0.707107 -0.707107 -0.000000
v -0.831470 -0.555570 -0.000000
v -0.923880 -0.382683 -0.000000
v -0.980785 -0.195090 -0.000000
v -1.000000 0.000000 0.000000
v -0.980785 0.195090 0.000000
v -0.923880 0.382683 0.000000
v -0.831470 0.555570 0.000000
v -0.707107 0.707107 0.000000
v -0.555570 0.831470 0.000000
v -0.382683 0.923880 0.000000
v -0.195090 0.980785 0.000000
v 0.000000 1.000000 0.000000
v 0.000000 1.000000 0.000000
v -0.195090 0.980785 0.000000
v -0.382683 0.923880 0.000000
v -0.555570 0.831470 0.000000
v -0.707107 0.707107 0.000000
v -0.831470 0.555570 0.000000
v -0.923880 0.382683 0.000000
v -0.980785 0.195090 0.000000
v -1.000000 0.000000 0.000000
v -0.980785 -0.195090 -0.000000
v -0.923880 -0.382683 -0.000000
v -0.831470 -0.555570 -0.000000
v -0.707107 -0.707107 -0.000000
v -0.555570 -0.831470 -0.000000
v -0.382683 -0.923880 -0.000000
v -0.195090 -0.980785 -0.000000
v 0.000000 -1.000000 -0.000000
v 0.195091 -0.980785 -0.000000
v 0.382684 -0.923879 -0.000000
v 0.555571 -0.831469 -0.000000
v 0.707107 -0.707106 -0.000000
v 0.831470 -0.555570 -0.000000
v 0.923880 -0.382683 -0.000000
v 0.980785 -0.195089 -0.000000
v 1.000000 0.000001 0.000000
v 0.980785 0.195091 0.000000
v 0.923879 0.382684 0.000000
v 0.831469 0.555571 0.000000
v 0.707106 0.707108 0.000000
v 0.555569 0.831470 0.000000
v 0.382682 0.923880 0.000000
v 0.195089 0.980786 0.000000
v 0.000000 1.000000 -3.000000
v -0.195090 0.980785 -3.000000
v -0.382683 0.923880 -3.000000
v -0.555570 0.831470 -3.000000
v -0.707107 0.707107 -3.000000
v -0.831470 0.555570 -3.000000
v -0.923880 0.382683 -3.000000
v -0.980785 0.195090 -3.000000
v -1.000000 0.000000 -3.000000
v -0.980785 -0.195090 -3.000000
v -0.923880 -0.382683 -3.000000
v -0.831470 -0.555570 -3.000000
v -0.707107 -0.707107 -3.000000
v -0.555570 -0.831470 -3.000000
v -0.382683 -0.923880 -3.000000
v -0.195090 -0.980785 -3.000000
v 0.000000 -1.000000 -3.000000
v 0.195091 -0.980785 -3.000000
v 0.382684 -0.923879 -3.000000
v 0.555571 -0.831469 -3.000000
v 0.707107 -0.707106 -3.000000
v 0.831470 -0.555570 -3.000000
v 0.923880 -0.382683 -3.000000
v 0.980785 -0.195089 -3.000000
v 1.000000 0.000001 -3.000000
v 0.980785 0.195091 -3.000000
v 0.923879 0.382684 -3.000000
v 0.831469 0.555571 -3.000000
v 0.707106 0.707108 -3.000000
v 0.555569 0.831470 -3.000000
v 0.382682 0.923880 -3.000000
v 0.195089 0.980786 -3.000000
v -0.000000 0.000000 0.000000
v -0.000000 0.000000 0.000000
v -0.000000 0.000000 0.000000
v -0.000000 0.000000 0.000000
v -0.000000 0.000000 0.000000
v -0.000000 0.000000 0.000000
v -0.000000 0.000000 0.000000
v -0.000000 0.000000 0.000000
v -0.000000 0.000000 0.000000
v -0.000000 0.000000 0.000000
v -0.000000 0.000000 0.000000
v -0.000000 0.000000 0.000000
v -0.000000 0.000000 0.000000
v -0.000000 0.000000 0.000000
v -0.000000 0.000000 0.000000
v -0.000000 0.000000 0.000000
v -0.000000 0.000000 0.000000
v -0.000000 0.000000 0.000000
v -0.000000 0.000000 0.000000
v -0.000000 0.000000 0.000000
v -0.000000 0.000000 0.000000
v -0.000000 0.000000 0.000000
v -0.000000 0.000000 0.000000
v -0.000000 0.000000 0.000000
v -0.000000 0.000000 0.000000
v -0.000000 0.000000 0.000000
v -0.000000 0.000000 0.000000
v -0.000000 0.000000 0.000000
v -0.000000 0.000000 0.000000
v -0.000000 0.000000 0.000000
v -0.000000 0.000000 0.000000
v -0.000000 0.000000 0.000000
v 0.000000 1.000000 -28.000000
v -0.195090 0.980785 -28.000000
v -0.382683 0.923880 -28.000000
v -0.555570 0.831470 -28.000000
v -0.707107 0.707107 -28.000000
v -0.831470 0.555570 -28.000000
v -0.923880 0.382683 -28.000000
v -0.980785 0.195090 -28.000000
v -1.000000 0.000000 -28.000000
v -0.980785 -0.195090 -28.000000
v -0.923880 -0.382683 -28.000000
v -0.831470 -0.555570 -28.000000
v -0.707107 -0.707107 -28.000000
v -0.555570 -0.831470 -28.000000
v -0.382683 -0.923880 -28.000000
v -0.195090 -0.980785 -28.000000
v 0.000000 -1.000000 -28.000000
v 0.195091 -0.980785 -28.000000
v 0.382684 -0.923879 -28.000000
v 0.555571 -0.831469 -28.000000
v 0.707107 -0.707106 -28.000000
v 0.831470 -0.555570 -28.000000
v 0.923880 -0.382683 -28.000000
v 0.980785 -0.195089 -28.000000
v 1.000000 0.000001 -28.000000
v 0.980785 0.195091 -28.000000
v 0.923879 0.382684 -28.000000
v 0.831469 0.555571 -28.000000
v 0.707106 0.707108 -28.000000
v 0.555569 0.831470 -28.000000
v 0.382682 0.923880 -28.000000
v 0.195089 0.980786 -28.000000
v 0.000000 1.000000 -53.000000
v -0.195090 0.980785 -53.000000
v -0.382683 0.923880 -53.000000
v -0.555570 0.831470 -53.000000
v -0.707107 0.707107 -53.000000
v -0.831470 0.555570 -53.000000
v -0.923880 0.382683 -53.000000
v -0.980785 0.195090 -53.000000
v -1.000000 0.000000 -53.000000
v -0.980785 -0.195090 -53.000000
v -0.923880 -0.382683 -53.000000
v -0.831470 -0.555570 -53.000000
v -0.707107 -0.707107 -53.000000
v -0.555570 -0.831470 -53.000000
v -0.382683 -0.923880 -53.000000
v -0.195090 -0.980785 -53.000000
v 0.000000 -1.000000 -53.000000
v 0.195091 -0.980785 -53.000000
v 0.382684 -0.923879 -53.000000
v 0.555571 -0.831469 -53.000000
v 0.707107 -0.707106 -53.000000
v 0.831470 -0.555570 -53.000000
v 0.923880 -0.382683 -53.000000
v 0.980785 -0.195089 -53.000000
v 1.000000 0.000001 -53.000000
v 0.980785 0.195091 -53.000000
v 0.923879 0.382684 -53.000000
v 0.831469 0.555571 -53.000000
v 0.707106 0.707108 -53.000000
v 0.555569 0.831470 -53.000000
v 0.382682 0.923880 -53.000000
v 0.195089 0.980786 -53.000000
vt 0.000000 0.000000
vt 0.000000 0.000000
vt 0.000000 0.000000
vt 0.000000 0.000000
vt 0.000000 0.000000
vt 0.000000 0.000000
vt 0.000000 0.000000
vt 0.000000 0.000000
vt 0.000000 0.000000
vt 0.000000 0.000000
vt 0.000000 0.000000
vt 0.000000 0.000000
vt 0.000000 0.000000
vt 0.000000 0.000000
vt 0.000000 0.000000
vt 0.000000 0.000000
vt 0.000000 0.000000
vt 0.000000 0.000000
vt 0.000000 0.000000
vt 0.000000 0.000000
vt 0.000000 0.000000
vt 0.000000 0.000000
vt 0.000000 0.000000
vt 0.000000 0.000000
vt 0.000000 0.000000
vt 0.000000 0.000000
vt 0.000000 0.000000
vt 0.000000 0.000000
vt 0.000000 0.000000
vt 0.000000 0.000000
vt 0.000000 0.000000
vt 0.000000 0.000000
vt 0.000000 0.000000
vt 0.000000 0.000000
vt 0.000000 0.000000
vt 0.000000 0.000000
vt 0.000000 0.000000
vt 0.000000 0.000000
vt 0.000000 0.000000
vt 0.000000 0.000000
vt 0.000000 0.000000
vt 0.000000 0.000000
vt 0.000000 0.000000
vt 0.000000 0.000000
vt 0.000000 0.000000
vt 0.000000 0.000000
vt 0.000000 0.000000
vt 0.000000 0.000000
vt 0.000000 0.000000
vt 0.000000 0.000000
vt 0.000000 0.000000
vt 0.000000 0.000000
vt 0.000000 0.000000
vt 0.000000 0.000000
vt 0.000000 0.000000
vt 0.000000 0.000000
vt 0.000000 0.000000
vt 0.000000 0.000000
vt 0.000000 0.000000
vt 0.000000 0.000000
vt 0.000000 0.000000
vt 0.000000 0.000000
vt 0.000000 0.000000
vt 0.000000 0.000000
vt 0.000000 0.000000
vt 0.000000 0.000000
vt 0.000000 0.000000
vt 0.000000 0.000000
vt 0.000000 0.000000
vt 0.000000 0.000000
vt 0.000000 0.000000
vt 0.000000 0.000000
vt 0.000000 0.000000
vt 0.000000 0.000000
vt 0.000000 0.000000
vt 0.000000 0.000000
vt 0.000000 0.000000
vt 0.000000 0.000000
vt 0.000000 0.000000
vt 0.000000 0.000000
vt 0.000000 0.000000
vt 0.000000 0.000000
vt 0.000000 0.000000
vt 0.000000 0.000000
vt 0.000000 0.000000
vt 0.000000 0.000000
vt 0.000000 0.000000
vt 0.000000 0.000000
vt 0.000000 0.000000
vt 0.000000 0.000000
vt 0.000000 0.000000
vt 0.000000 0.000000
vt 0.000000 0.000000
vt 0.000000 0.000000
vt 0.000000 0.000000
vt 0.000000 0.000000
vt 0.000000 0.000000
vt 0.000000 0.000000
vt 0.000000 0.000000
vt 0.000000 0.000000
vt 0.000000 0.000000
vt 0.000000 0.000000
vt 0.000000 0.000000
vt 0.000000 0.000000
vt 0.000000 0.000000
vt 0.000000 0.000000
vt 0.000000 0.000000
vt 0.000000 0.000000
vt 0.000000 0.000000
vt 0.000000 0.000000
vt 0.000000 0.000000
vt 0.000000 0.000000
vt 0.000000 0.000000
vt 0.000000 0.000000
vt 0.000000 0.000000
vt 0.000000 0.000000
vt 0.000000 0.000000
vt 0.000000 0.000000
vt 0.000000 0.000000
vt 0.000000 0.000000
vt 0.000000 0.000000
vt 0.000000 0.000000
vt 0.000000 0.000000
vt 0.000000 0.000000
vt 0.000000 0.000000
vt 0.000000 0.000000
vt 0.000000 0.000000
vt 0.000000 0.000000
vt 0.000000 0.000000
vt 0.000000 0.000000
vt 0.000000 0.000000
vt 0.000000 0.000000
vt 0.000000 0.000000
vt 0.000000 0.000000
vt 0.000000 0.000000
vt 0.000000 0.000000
vt 0.000000 0.000000
vt 0.000000 0.000000
vt 0.000000 0.000000
vt 0.000000 0.000000
vt 0.000000 0.000000
vt 0.000000 0.000000
vt 0.000000 0.000000
vt 0.000000 0.000000
vt 0.000000 0.000000
vt 0.000000 0.000000
vt 0.000000 0.000000
vt 0.000000 0.000000
vt 0.000000 0.000000
vt 0.000000 0.000000
vt 0.000000 0.000000
vt 0.000000 0.000000
vt 0.000000 0.000000
vt 0.000000 0.000000
vt 0.000000 0.000000
vt 0.000000 0.000000
vt 0.000000 0.000000
vt 0.000000 0.000000
vt 0.000000 0.000000
vt 0.000000 0.000000
vt 0.000000 0.000000
vt 0.000000 0.000000
vt 0.000000 0.000000
vt 0.000000 0.000000
vt 0.000000 0.000000
vt 0.000000 0.000000
vt 0.000000 0.000000
vt 0.000000 0.000000
vt 0.000000 0.000000
vt 0.000000 0.000000
vt 0.000000 0.000000
vt 0.000000 0.000000
vt 0.000000 0.000000
vt 0.000000 0.000000
vt 0.000000 0.000000
vt 0.000000 0.000000
vt 0.000000 0.000000
vt 0.000000 0.000000
vt 0.000000 0.000000
vt 0.000000 0.000000
vt 0.000000 0.000000
vt 0.000000 0.000000
vt 0.000000 0.000000
vt 0.000000 0.000000
vt 0.000000 0.000000
vt 0.000000 0.000000
vt 0.000000 0.000000
vt 0.000000 0.000000
vt 0.000000 0.000000
vt 0.000000 0.000000
vt 0.000000 0.000000
vt 0.000000 0.000000
vn 0.0000 0.0000 1.0000
vn 0.4474 0.8371 0.3149
vn -0.4474 0.8371 0.3149
vn 0.0000 0.9487 -0.3162
vn 0.6021 0.7337 0.3149
vn 0.7337 0.6021 0.3149
vn -0.0930 0.9446 0.3149
vn -0.4474 -0.8371 0.3149
vn 0.8371 0.4474 0.3149
vn -0.6021 -0.7337 0.3149
vn 0.9083 0.2755 0.3149
vn -0.7337 -0.6021 0.3149
vn 0.9446 0.0930 0.3149
vn -0.8371 -0.4474 0.3149
vn 0.0000 0.0000 -1.0000
vn -0.9083 -0.2755 0.3149
vn 0.9083 -0.2755 0.3149
vn -0.9446 -0.0930 0.3149
vn 0.8371 -0.4474 0.3149
vn -0.9446 0.0930 0.3149
vn 0.7337 -0.6021 0.3149
vn -0.9083 0.2755 0.3149
vn 0.6021 -0.7337 0.3149
vn -0.8371 0.4474 0.3149
vn 0.4474 -0.8371 0.3149
vn 0.0930 0.9446 0.3149
vn -0.7337 0.6021 0.3149
vn 0.2755 -0.9083 0.3149
vn 0.2755 0.9083 0.3149
vn -0.6021 0.7337 0.3149
vn 1.0000 0.0000 0.0000
vn -0.4714 -0.8819 0.0000
vn -0.0980 0.9952 0.0000
vn 0.7730 0.6344 0.0000
vn -0.2903 -0.9569 -0.0000
vn -0.2903 0.9569 0.0000
vn 0.6344 0.7730 0.0000
vn -0.0980 -0.9952 -0.0000
vn -0.4714 0.8819 0.0000
vn 0.4714 0.8819 0.0000
vn 0.0980 -0.9952 0.0000
vn -0.6344 0.7730 0.0000
vn 0.2903 0.9569 0.0000
vn 0.2903 -0.9569 0.0000
vn -0.7730 0.6344 0.0000
vn 0.0980 0.9952 0.0000
vn 0.4714 -0.8819 0.0000
vn -0.8819 0.4714 0.0000
vn 0.6344 -0.7730 0.0000
vn -0.9569 0.2903 0.0000
vn 0.7730 -0.6344 0.0000
vn -0.9952 0.0980 0.0000
vn 0.8819 -0.4714 0.0000
vn -0.9952 -0.0980 0.0000
vn 0.9569 -0.2903 0.0000
vn -0.9569 -0.2903 0.0000
vn 0.9952 -0.0980 0.0000
vn -0.8819 -0.4714 -0.0000
vn 0.9952 0.0980 0.0000
vn -0.7730 -0.6344 0.0000
vn 0.9569 0.2903 0.0000
vn -0.6344 -0.7730 0.0000
vn 0.8819 0.4714 0.0000
vn -0.0930 -0.9446 0.3149
vn -0.2755 0.9083 0.3149
vn -0.2755 -0.9083 0.3149
vn 0.0000 -0.9487 -0.3162
vn 0.9446 -0.0930 0.3149
vn 0.0000 1.0000 0.0000
vn 0.0930 -0.9446 0.3149
s off
f 38/1/1 28/2/1 27/3/1
f 33/4/1 1/5/1 32/6/1
f 52/7/1 14/8/1 13/9/1
f 39/10/1 27/3/1 26/11/1
f 53/12/1 13/9/1 12/13/1
f 40/14/1 26/11/1 25/15/1
f 54/16/1 12/13/1 11/17/1
f 41/18/1 25/15/1 24/19/1
f 55/20/1 11/17/1 10/21/1
f 42/22/1 24/19/1 23/23/1
f 56/24/1 10/21/1 9/25/1
f 43/26/1 23/23/1 22/27/1
f 57/28/1 9/25/1 8/29/1
f 44/30/1 22/27/1 21/31/1
f 58/32/1 8/29/1 7/33/1
f 45/34/1 21/31/1 20/35/1
f 59/36/1 7/33/1 6/37/1
f 46/38/1 20/35/1 19/39/1
f 60/40/1 6/37/1 5/41/1
f 47/42/1 19/39/1 18/43/1
f 34/44/1 32/6/1 31/45/1
f 61/46/1 5/41/1 4/47/1
f 48/48/1 18/43/1 17/49/1
f 35/50/1 31/45/1 30/51/1
f 62/52/1 4/47/1 3/53/1
f 49/54/1 17/49/1 16/55/1
f 36/56/1 30/51/1 29/57/1
f 63/58/1 3/53/1 2/59/1
f 50/60/1 16/55/1 15/61/1
f 37/62/1 29/57/1 28/2/1
f 64/63/1 2/59/1 1/5/1
f 51/64/1 15/61/1 14/8/1
f 98/65/2 94/66/2 95/67/2
f 125/68/3 67/69/3 68/70/3
f 113/71/4 81/72/4 112/73/4
f 99/74/5 93/75/5 94/66/5
f 127/76/1 67/69/1 126/77/1
f 114/78/1 80/79/1 113/71/1
f 100/80/6 92/81/6 93/75/6
f 127/76/7 65/82/7 66/83/7
f 114/78/8 78/84/8 79/85/8
f 101/86/9 91/87/9 92/81/9
f 115/88/10 77/89/10 78/84/10
f 102/90/11 90/91/11 91/87/11
f 116/92/12 76/93/12 77/89/12
f 103/94/13 89/95/13 90/91/13
f 117/96/14 75/97/14 76/93/14
f 105/98/15 89/95/15 104/99/15
f 118/100/16 74/101/16 75/97/16
f 105/98/17 87/102/17 88/103/17
f 119/104/18 73/105/18 74/101/18
f 106/106/19 86/107/19 87/102/19
f 120/108/20 72/109/20 73/105/20
f 107/110/21 85/111/21 86/107/21
f 121/112/22 71/113/22 72/109/22
f 108/114/23 84/115/23 85/111/23
f 122/116/24 70/117/24 71/113/24
f 109/118/25 83/119/25 84/115/25
f 128/120/26 96/121/26 65/82/26
f 123/122/27 69/123/27 70/117/27
f 110/124/28 82/125/28 83/119/28
f 97/126/29 95/67/29 96/121/29
f 124/127/30 68/70/30 69/123/30
f 112/73/31 82/125/31 111/128/31
f 78/84/32 143/129/32 79/85/32
f 65/82/33 130/130/33 66/83/33
f 92/81/34 157/131/34 93/75/34
f 79/85/35 144/132/35 80/79/35
f 66/83/36 131/133/36 67/69/36
f 93/75/37 158/134/37 94/66/37
f 80/79/38 145/135/38 81/72/38
f 68/70/39 131/133/39 132/136/39
f 94/66/40 159/137/40 95/67/40
f 81/72/41 146/138/41 82/125/41
f 68/70/42 133/139/42 69/123/42
f 95/67/43 160/140/43 96/121/43
f 82/125/44 147/141/44 83/119/44
f 69/123/45 134/142/45 70/117/45
f 96/121/46 129/143/46 65/82/46
f 83/119/47 148/144/47 84/115/47
f 71/113/48 134/142/48 135/145/48
f 84/115/49 149/146/49 85/111/49
f 72/109/50 135/145/50 136/147/50
f 85/111/51 150/148/51 86/107/51
f 72/109/52 137/149/52 73/105/52
f 86/107/53 151/150/53 87/102/53
f 73/105/54 138/151/54 74/101/54
f 87/102/55 152/152/55 88/103/55
f 74/101/56 139/153/56 75/97/56
f 89/95/57 152/152/57 153/154/57
f 75/97/58 140/155/58 76/93/58
f 89/95/59 154/156/59 90/91/59
f 76/93/60 141/157/60 77/89/60
f 90/91/61 155/158/61 91/87/61
f 77/89/62 142/159/62 78/84/62
f 91/87/63 156/160/63 92/81/63
f 140/155/60 173/161/60 141/157/60
f 154/156/61 187/162/61 155/158/61
f 141/157/62 174/163/62 142/159/62
f 155/158/63 188/164/63 156/160/63
f 142/159/32 175/165/32 143/129/32
f 129/143/33 162/166/33 130/130/33
f 156/160/34 189/167/34 157/131/34
f 143/129/35 176/168/35 144/132/35
f 130/130/36 163/169/36 131/133/36
f 157/131/37 190/170/37 158/134/37
f 144/132/38 177/171/38 145/135/38
f 132/136/39 163/169/39 164/172/39
f 158/134/40 191/173/40 159/137/40
f 145/135/41 178/174/41 146/138/41
f 132/136/42 165/175/42 133/139/42
f 159/137/43 192/176/43 160/140/43
f 146/138/44 179/177/44 147/141/44
f 133/139/45 166/178/45 134/142/45
f 160/140/46 161/179/46 129/143/46
f 147/141/47 180/180/47 148/144/47
f 135/145/48 166/178/48 167/181/48
f 148/144/49 181/182/49 149/146/49
f 136/147/50 167/181/50 168/183/50
f 149/146/51 182/184/51 150/148/51
f 136/147/52 169/185/52 137/149/52
f 150/148/53 183/186/53 151/150/53
f 137/149/54 170/187/54 138/151/54
f 151/150/55 184/188/55 152/152/55
f 138/151/56 171/189/56 139/153/56
f 152/152/57 185/190/57 153/154/57
f 139/153/58 172/191/58 140/155/58
f 153/154/59 186/192/59 154/156/59
f 38/1/1 37/62/1 28/2/1
f 33/4/1 64/63/1 1/5/1
f 52/7/1 51/64/1 14/8/1
f 39/10/1 38/1/1 27/3/1
f 53/12/1 52/7/1 13/9/1
f 40/14/1 39/10/1 26/11/1
f 54/16/1 53/12/1 12/13/1
f 41/18/1 40/14/1 25/15/1
f 55/20/1 54/16/1 11/17/1
f 42/22/1 41/18/1 24/19/1
f 56/24/1 55/20/1 10/21/1
f 43/26/1 42/22/1 23/23/1
f 57/28/1 56/24/1 9/25/1
f 44/30/1 43/26/1 22/27/1
f 58/32/1 57/28/1 8/29/1
f 45/34/1 44/30/1 21/31/1
f 59/36/1 58/32/1 7/33/1
f 46/38/1 45/34/1 20/35/1
f 60/40/1 59/36/1 6/37/1
f 47/42/1 46/38/1 19/39/1
f 34/44/1 33/4/1 32/6/1
f 61/46/1 60/40/1 5/41/1
f 48/48/1 47/42/1 18/43/1
f 35/50/1 34/44/1 31/45/1
f 62/52/1 61/46/1 4/47/1
f 49/54/1 48/48/1 17/49/1
f 36/56/1 35/50/1 30/51/1
f 63/58/1 62/52/1 3/53/1
f 50/60/1 49/54/1 16/55/1
f 37/62/1 36/56/1 29/57/1
f 64/63/1 63/58/1 2/59/1
f 51/64/1 50/60/1 15/61/1
f 98/65/1 99/74/1 94/66/1
f 125/68/1 126/77/1 67/69/1
f 113/71/64 80/79/64 81/72/64
f 99/74/1 100/80/1 93/75/1
f 127/76/65 66/83/65 67/69/65
f 114/78/66 79/85/66 80/79/66
f 100/80/1 101/86/1 92/81/1
f 127/76/67 128/120/67 65/82/67
f 114/78/1 115/88/1 78/84/1
f 101/86/1 102/90/1 91/87/1
f 115/88/1 116/92/1 77/89/1
f 102/90/1 103/94/1 90/91/1
f 116/92/1 117/96/1 76/93/1
f 103/94/1 104/99/1 89/95/1
f 117/96/1 118/100/1 75/97/1
f 105/98/68 88/103/68 89/95/68
f 118/100/1 119/104/1 74/101/1
f 105/98/1 106/106/1 87/102/1
f 119/104/1 120/108/1 73/105/1
f 106/106/1 107/110/1 86/107/1
f 120/108/1 121/112/1 72/109/1
f 107/110/1 108/114/1 85/111/1
f 121/112/1 122/116/1 71/113/1
f 108/114/1 109/118/1 84/115/1
f 122/116/1 123/122/1 70/117/1
f 109/118/1 110/124/1 83/119/1
f 128/120/1 97/126/1 96/121/1
f 123/122/1 124/127/1 69/123/1
f 110/124/69 111/128/69 82/125/69
f 97/126/1 98/65/1 95/67/1
f 124/127/1 125/68/1 68/70/1
f 112/73/70 81/72/70 82/125/70
f 78/84/32 142/159/32 143/129/32
f 65/82/33 129/143/33 130/130/33
f 92/81/34 156/160/34 157/131/34
f 79/85/35 143/129/35 144/132/35
f 66/83/36 130/130/36 131/133/36
f 93/75/37 157/131/37 158/134/37
f 80/79/38 144/132/38 145/135/38
f 68/70/39 67/69/39 131/133/39
f 94/66/40 158/134/40 159/137/40
f 81/72/41 145/135/41 146/138/41
f 68/70/42 132/136/42 133/139/42
f 95/67/43 159/137/43 160/140/43
f 82/125/44 146/138/44 147/141/44
f 69/123/45 133/139/45 134/142/45
f 96/121/46 160/140/46 129/143/46
f 83/119/47 147/141/47 148/144/47
f 71/113/48 70/117/48 134/142/48
f 84/115/49 148/144/49 149/146/49
f 72/109/50 71/113/50 135/145/50
f 85/111/51 149/146/51 150/148/51
f 72/109/52 136/147/52 137/149/52
f 86/107/53 150/148/53 151/150/53
f 73/105/54 137/149/54 138/151/54
f 87/102/55 151/150/55 152/152/55
f 74/101/56 138/151/56 139/153/56
f 89/95/57 88/103/57 152/152/57
f 75/97/58 139/153/58 140/155/58
f 89/95/59 153/154/59 154/156/59
f 76/93/60 140/155/60 141/157/60
f 90/91/61 154/156/61 155/158/61
f 77/89/62 141/157/62 142/159/62
f 91/87/63 155/158/63 156/160/63
f 140/155/60 172/191/60 173/161/60
f 154/156/61 186/192/61 187/162/61
f 141/157/62 173/161/62 174/163/62
f 155/158/63 187/162/63 188/164/63
f 142/159/32 174/163/32 175/165/32
f 129/143/33 161/179/33 162/166/33
f 156/160/34 188/164/34 189/167/34
f 143/129/35 175/165/35 176/168/35
f 130/130/36 162/166/36 163/169/36
f 157/131/37 189/167/37 190/170/37
f 144/132/38 176/168/38 177/171/38
f 132/136/39 131/133/39 163/169/39
f 158/134/40 190/170/40 191/173/40
f 145/135/41 177/171/41 178/174/41
f 132/136/42 164/172/42 165/175/42
f 159/137/43 191/173/43 192/176/43
f 146/138/44 178/174/44 179/177/44
f 133/139/45 165/175/45 166/178/45
f 160/140/46 192/176/46 161/179/46
f 147/141/47 179/177/47 180/180/47
f 135/145/48 134/142/48 166/178/48
f 148/144/49 180/180/49 181/182/49
f 136/147/50 135/145/50 167/181/50
f 149/146/51 181/182/51 182/184/51
f 136/147/52 168/183/52 169/185/52
f 150/148/53 182/184/53 183/186/53
f 137/149/54 169/185/54 170/187/54
f 151/150/55 183/186/55 184/188/55
f 138/151/56 170/187/56 171/189/56
f 152/152/57 184/188/57 185/190/57
f 139/153/58 171/189/58 172/191/58
f 153/154/59 185/190/59 186/192/59
