# Blender v2.82 (sub 7) OBJ File: ''
# www.blender.org
o Icosphere
v 0.000000 -0.260000 0.000000
v 0.188138 -0.116277 0.136689
v -0.071861 -0.116277 0.221169
v -0.232551 -0.116276 0.000000
v -0.071861 -0.116277 -0.221169
v 0.188138 -0.116277 -0.136689
v 0.071861 0.116277 0.221169
v -0.188138 0.116277 0.136689
v -0.188138 0.116277 -0.136689
v 0.071861 0.116277 -0.221169
v 0.232551 0.116276 0.000000
v 0.000000 0.260000 0.000000
v -0.042238 -0.221170 0.129999
v 0.110584 -0.221170 0.080343
v 0.068346 -0.136692 0.210343
v 0.221168 -0.136691 0.000000
v 0.110584 -0.221170 -0.080343
v -0.136690 -0.221169 0.000000
v -0.178929 -0.136691 0.129999
v -0.042238 -0.221170 -0.129999
v -0.178929 -0.136691 -0.129999
v 0.068346 -0.136692 -0.210343
v 0.247275 0.000000 0.080343
v 0.247275 0.000000 -0.080343
v 0.000000 0.000000 0.260000
v 0.152824 0.000000 0.210344
v -0.247275 0.000000 0.080343
v -0.152824 0.000000 0.210344
v -0.152824 0.000000 -0.210344
v -0.247275 0.000000 -0.080343
v 0.152824 0.000000 -0.210344
v 0.000000 0.000000 -0.260000
v 0.178929 0.136691 0.129999
v -0.068346 0.136692 0.210343
v -0.221168 0.136691 0.000000
v -0.068346 0.136692 -0.210343
v 0.178929 0.136691 -0.129999
v 0.042238 0.221170 0.129999
v 0.136690 0.221169 0.000000
v -0.110584 0.221170 0.080343
v -0.110584 0.221170 -0.080343
v 0.042238 0.221170 -0.129999
v -0.194913 0.026013 0.339879
v -0.110434 0.162705 0.339878
v -0.042088 0.026013 0.389535
v -0.275038 0.148002 0.162426
v -0.334175 0.031725 0.106081
v -0.308069 0.168416 0.025737
v 0.222380 0.206997 0.196769
v 0.115311 0.186582 0.287939
v 0.085689 0.291475 0.196769
v 0.264836 0.215201 -0.153104
v 0.318457 0.194785 -0.023105
v 0.222596 0.299679 -0.023105
v 0.240161 -0.013670 -0.273798
v 0.275475 -0.129947 -0.200142
v 0.334612 -0.013670 -0.143797
v 0.290529 -0.162013 0.020543
v 0.257498 -0.141598 0.157231
v 0.316635 -0.025321 0.100886
v -0.110439 -0.178699 0.280451
v -0.080816 -0.283592 0.189281
v -0.217507 -0.199113 0.189282
v -0.300580 -0.178448 -0.018297
v -0.204719 -0.283341 -0.018297
v -0.246959 -0.198863 -0.148296
v 0.127193 -0.291526 -0.131459
v 0.084955 -0.207048 -0.261459
v -0.025629 -0.291526 -0.181115
v -0.002412 0.032208 -0.351980
v 0.069448 0.148485 -0.313148
v -0.070758 0.168900 -0.302323
v -0.006970 0.324230 -0.021450
v -0.117553 0.285401 -0.101793
v 0.035269 0.285401 -0.151449
v -0.300374 0.008311 -0.118922
v -0.241237 0.124588 -0.175267
v -0.205923 0.008311 -0.248923
vt 0.818181 0.000000
vt 0.772726 0.078731
vt 0.863635 0.078731
vt 0.727272 0.157461
vt 0.681818 0.078731
vt 0.636363 0.157461
vt 0.090909 0.000000
vt 0.045454 0.078731
vt 0.136363 0.078731
vt 0.272727 0.000000
vt 0.227273 0.078731
vt 0.318182 0.078731
vt 0.454545 0.000000
vt 0.409090 0.078731
vt 0.500000 0.078731
vt 0.681818 0.236191
vt 0.636363 0.157461
vt 0.909090 0.157461
vt 0.818181 0.157461
vt 0.863635 0.236191
vt 0.181818 0.157461
vt 0.090909 0.157461
vt 0.136363 0.236191
vt 0.363636 0.157461
vt 0.272727 0.157461
vt 0.318182 0.236191
vt 0.545454 0.157461
vt 0.454545 0.157461
vt 0.500000 0.236191
vt 0.772726 0.236191
vt 0.954545 0.236191
vt 0.227273 0.236191
vt 0.409090 0.236191
vt 0.590909 0.236191
vt 0.500000 0.236191
vt 0.772726 0.393651
vt 0.727272 0.314921
vt 0.727272 0.314921
vt 1.000000 0.314921
vt 0.909091 0.314921
vt 0.954545 0.393651
vt 0.272727 0.314921
vt 0.181818 0.314921
vt 0.227273 0.393651
vt 0.454545 0.314921
vt 0.363636 0.314921
vt 0.409090 0.393651
vt 0.590909 0.393651
vt 0.545454 0.314921
vt 0.545454 0.314921
vt 0.500000 0.393651
vt 0.545454 0.472382
vt 0.318182 0.393651
vt 0.409090 0.393651
vt 0.136363 0.393651
vt 0.181818 0.472382
vt 0.090909 0.314921
vt 0.863635 0.393651
vt 0.909090 0.472382
vt 0.818181 0.314921
vt 0.681818 0.393651
vt 0.727272 0.472382
vt 0.636363 0.314921
vt 0.409090 0.236191
vt 0.181818 0.314921
vt 0.863635 0.236191
vt 0.227273 0.236191
vt 0.318182 0.236191
vt 0.045454 0.236191
vt 0.000000 0.157461
vt 0.409090 0.078731
vt 0.272727 0.157461
vt 0.090909 0.157461
vt 0.590909 0.078731
vt 0.636363 0.000000
vt 0.954545 0.236191
vt 0.909091 0.314921
vt 0.136363 0.236191
vt 0.090909 0.314921
vt 0.818181 0.314921
vt 0.772726 0.393651
vt 0.863635 0.393651
vt 0.636363 0.314921
vt 0.590909 0.393651
vt 0.681818 0.393651
vt 0.545454 0.157461
vt 0.590909 0.236191
vt 0.727272 0.157461
vt 0.681818 0.236191
vt 0.045454 0.078731
vt 0.000000 0.157461
vt 0.863635 0.078731
vt 0.227273 0.078731
vt 0.181818 0.157461
vt 0.136363 0.078731
vt 0.500000 0.078731
vt 0.454545 0.157461
vt 0.363636 0.314921
vt 0.454545 0.314921
vt 0.318182 0.393651
vt 0.363636 0.472382
vt 0.500000 0.393651
vt 0.545454 0.472382
vt 0.227273 0.393651
vt 0.272727 0.314921
vt 0.909090 0.157461
vt 0.181818 0.472382
vn 0.1024 -0.9435 0.3151
vn 0.7002 -0.6617 0.2680
vn -0.2680 -0.9435 0.1947
vn -0.2680 -0.9435 -0.1947
vn 0.1024 -0.9435 -0.3151
vn 0.3932 0.4089 -0.8235
vn 0.0247 -0.3304 0.9435
vn -0.8897 -0.3304 0.3151
vn -0.5746 -0.3304 -0.7488
vn 0.5346 -0.3304 -0.7779
vn 0.8026 -0.1256 0.5831
vn -0.3066 -0.1256 0.9435
vn -0.9921 -0.1256 0.0000
vn -0.3066 -0.1256 -0.9435
vn 0.1016 0.9921 -0.0738
vn 0.3304 0.5346 -0.7779
vn -0.4713 0.6617 0.5831
vn -0.7002 0.6617 -0.2680
vn 0.0385 0.6617 -0.7488
vn -0.6377 0.5346 -0.5546
vn 0.2680 0.9435 -0.1947
vn 0.4911 0.7947 -0.3568
vn 0.4089 0.6617 -0.6284
vn -0.2916 -0.3313 -0.8973
vn -0.1876 0.7947 -0.5773
vn -0.4713 0.6617 -0.5831
vn -0.3313 0.9435 0.0000
vn -0.6071 0.7947 0.0000
vn -0.7002 0.6617 0.2680
vn -0.1024 0.9435 0.3151
vn -0.1876 0.7947 0.5773
vn 0.0385 0.6617 0.7488
vn 0.2680 0.9435 0.1947
vn 0.4911 0.7947 0.3568
vn 0.7240 0.6617 0.1947
vn 0.8897 0.3304 -0.3151
vn 0.7947 0.1876 -0.5773
vn 0.5746 0.3304 -0.7488
vn -0.9047 -0.4090 -0.1195
vn -0.3035 0.1876 -0.9342
vn -0.5346 0.3304 -0.7779
vn -0.9050 0.3304 -0.2680
vn -0.9822 0.1876 0.0000
vn -0.3932 -0.4089 -0.8235
vn -0.5346 0.3304 0.7779
vn 0.8526 0.4911 0.1784
vn -0.0247 0.3304 0.9435
vn 0.5746 0.3304 0.7488
vn 0.7947 0.1876 0.5773
vn 0.8897 0.3304 0.3151
vn 0.3066 0.1256 -0.9435
vn 0.3035 -0.1876 -0.9342
vn 0.0247 -0.3304 -0.9435
vn -0.1016 -0.9921 -0.0738
vn -0.7947 -0.1876 -0.5773
vn -0.8897 -0.3304 -0.3151
vn -0.8026 0.1256 0.5831
vn -0.7947 -0.1876 0.5773
vn -0.5746 -0.3304 0.7488
vn 0.3066 0.1256 0.9435
vn 0.3035 -0.1876 0.9342
vn 0.5346 -0.3304 0.7779
vn 0.9921 0.1256 0.0000
vn 0.9822 -0.1876 0.0000
vn 0.9050 -0.3304 -0.2680
vn 0.4713 -0.6617 -0.5831
vn -0.7009 0.3035 -0.6455
vn -0.0385 -0.6617 -0.7488
vn -0.4089 -0.6617 -0.6284
vn -0.4911 -0.7947 -0.3568
vn 0.6377 -0.5346 -0.5546
vn -0.7240 -0.6617 0.1947
vn -0.4911 -0.7947 0.3568
vn -0.3304 -0.5346 -0.7779
vn 0.7002 -0.6617 -0.2680
vn 0.6071 -0.7947 0.0000
vn 0.3313 -0.9435 0.0000
vn -0.0385 -0.6617 0.7488
vn 0.1876 -0.7947 0.5773
vn 0.4713 -0.6617 0.5831
vn -0.3035 0.1876 0.9342
vn -0.0580 -0.9822 0.1784
vn -0.7947 0.4911 -0.3568
vn -0.9050 0.3304 0.2680
vn 0.3563 0.9328 0.0532
vn 0.0883 -0.4704 0.8780
vn 0.4089 0.6617 0.6284
vn -0.8884 0.1314 0.4398
vn 0.5148 -0.7359 0.4398
vn 0.7240 0.6617 -0.1947
vn 0.1437 0.1314 0.9809
vn 0.5774 -0.7359 -0.3537
vn 0.8026 -0.1256 -0.5831
vn 0.4273 -0.5609 0.7090
vn -0.5423 -0.5609 -0.6255
vn 0.9050 -0.3304 0.2680
vn -0.0883 0.4704 0.8780
vn -0.3563 -0.9328 0.0532
vn -0.4089 -0.6617 0.6284
vn -0.5148 0.7359 0.4398
vn 0.8884 -0.1314 0.4398
vn -0.7240 -0.6617 -0.1947
vn -0.5774 0.7359 -0.3537
vn -0.1437 -0.1314 0.9809
vn 0.1876 -0.7947 -0.5773
vn -0.2456 -0.6071 0.7558
vn 0.9464 0.3035 -0.1103
vn -0.0247 0.3304 -0.9435
vn 0.1607 0.9328 0.3224
vn 0.8623 -0.4704 -0.1873
vn -0.1024 0.9435 -0.3151
vn 0.9493 0.1873 0.2525
vn -0.6196 0.1873 0.7623
vn -0.8026 0.1256 -0.5831
vn 0.5423 0.5609 -0.6255
vn -0.4273 0.5609 0.7090
vn -0.9047 -0.4089 -0.1195
s off
f 1/1/1 14/2/1 13/3/1
f 2/4/2 14/5/2 16/6/2
f 1/7/3 13/8/3 18/9/3
f 1/10/4 18/11/4 20/12/4
f 1/13/5 20/14/5 17/15/5
f 23/16/6 58/17/6 16/6/6
f 3/18/7 15/19/7 25/20/7
f 4/21/8 19/22/8 27/23/8
f 5/24/9 21/25/9 29/26/9
f 6/27/10 22/28/10 31/29/10
f 2/4/11 23/16/11 26/30/11
f 3/18/12 25/20/12 28/31/12
f 4/21/13 27/23/13 30/32/13
f 5/24/14 29/26/14 32/33/14
f 24/34/15 55/35/15 31/29/15
f 38/36/16 49/37/16 33/38/16
f 8/39/17 34/40/17 40/41/17
f 9/42/18 35/43/18 41/44/18
f 10/45/19 36/46/19 42/47/19
f 39/48/20 52/49/20 37/50/20
f 39/48/21 42/51/21 12/52/21
f 39/48/22 37/50/22 42/51/22
f 37/50/23 10/45/23 42/51/23
f 41/53/24 75/54/24 42/47/24
f 42/47/25 36/46/25 41/53/25
f 36/46/26 9/42/26 41/53/26
f 41/44/27 40/55/27 12/56/27
f 41/44/28 35/43/28 40/55/28
f 35/43/29 8/57/29 40/55/29
f 40/41/30 38/58/30 12/59/30
f 40/41/31 34/40/31 38/58/31
f 34/40/32 7/60/32 38/58/32
f 38/36/33 39/61/33 12/62/33
f 38/36/34 33/38/34 39/61/34
f 33/38/35 11/63/35 39/61/35
f 24/34/36 37/50/36 11/63/36
f 24/34/37 31/29/37 37/50/37
f 31/29/38 10/45/38 37/50/38
f 36/46/39 70/64/39 32/33/39
f 32/33/40 29/26/40 36/46/40
f 29/26/41 9/42/41 36/46/41
f 30/32/42 35/43/42 9/42/42
f 30/32/43 27/23/43 35/43/43
f 27/23/44 48/65/44 35/43/44
f 28/31/45 34/40/45 8/39/45
f 34/40/46 45/66/46 25/20/46
f 25/20/47 7/60/47 34/40/47
f 26/30/48 33/38/48 7/60/48
f 26/30/49 23/16/49 33/38/49
f 23/16/50 11/63/50 33/38/50
f 31/29/51 32/33/51 10/45/51
f 31/29/52 22/28/52 32/33/52
f 22/28/53 5/24/53 32/33/53
f 29/26/54 76/67/54 78/68/54
f 29/26/55 21/25/55 30/32/55
f 21/25/56 4/21/56 30/32/56
f 27/23/57 28/69/57 8/57/57
f 27/23/58 19/22/58 28/69/58
f 19/22/59 3/70/59 28/69/59
f 25/20/60 26/30/60 7/60/60
f 25/20/61 15/19/61 26/30/61
f 15/19/62 2/4/62 26/30/62
f 23/16/63 24/34/63 11/63/63
f 23/16/64 16/6/64 24/34/64
f 16/6/65 6/27/65 24/34/65
f 17/15/66 22/28/66 6/27/66
f 22/28/67 69/71/67 20/14/67
f 20/14/68 5/24/68 22/28/68
f 20/12/69 21/25/69 5/24/69
f 20/12/70 18/11/70 21/25/70
f 18/11/71 66/72/71 21/25/71
f 18/9/72 19/22/72 4/21/72
f 18/9/73 13/8/73 19/22/73
f 13/8/74 63/73/74 19/22/74
f 16/6/75 17/74/75 6/27/75
f 16/6/76 14/5/76 17/74/76
f 14/5/77 1/75/77 17/74/77
f 13/3/78 15/19/78 3/18/78
f 13/3/79 14/2/79 15/19/79
f 14/2/80 2/4/80 15/19/80
f 43/76/81 45/66/81 44/77/81
f 25/20/82 43/76/82 28/31/82
f 34/40/83 43/76/83 44/77/83
f 47/78/84 46/79/84 48/65/84
f 8/57/85 48/65/85 46/79/85
f 8/57/86 47/78/86 27/23/86
f 50/80/87 49/37/87 51/81/87
f 38/58/88 50/80/88 51/82/88
f 33/38/89 50/80/89 7/60/89
f 53/83/90 52/49/90 54/84/90
f 39/61/91 53/83/91 54/85/91
f 37/50/92 53/83/92 11/63/92
f 56/86/93 55/35/93 57/87/93
f 6/27/94 57/87/94 24/34/94
f 31/29/95 56/86/95 6/27/95
f 59/88/96 58/17/96 60/89/96
f 2/4/97 60/89/97 23/16/97
f 16/6/98 59/88/98 2/4/98
f 62/90/99 61/91/99 63/73/99
f 19/22/100 61/91/100 3/70/100
f 3/18/101 62/92/101 13/3/101
f 65/93/102 64/94/102 66/72/102
f 21/25/103 64/94/103 4/21/103
f 18/9/104 64/94/104 65/95/104
f 67/96/105 69/71/105 68/97/105
f 20/14/106 67/96/106 17/15/106
f 17/15/107 68/97/107 22/28/107
f 70/64/108 72/98/108 71/99/108
f 10/45/109 72/98/109 36/46/109
f 32/33/110 71/99/110 10/45/110
f 75/54/111 74/100/111 73/101/111
f 12/52/112 75/102/112 73/103/112
f 12/56/113 74/104/113 41/44/113
f 78/68/114 76/67/114 77/105/114
f 29/26/115 77/105/115 9/42/115
f 9/42/116 76/67/116 30/32/116
f 23/16/6 60/89/6 58/17/6
f 24/34/15 57/87/15 55/35/15
f 38/36/16 51/81/16 49/37/16
f 39/48/20 54/84/20 52/49/20
f 41/53/24 74/100/24 75/54/24
f 36/46/117 72/98/117 70/64/117
f 27/23/44 47/78/44 48/65/44
f 34/40/46 44/77/46 45/66/46
f 29/26/54 30/32/54 76/67/54
f 22/28/67 68/97/67 69/71/67
f 18/11/71 65/93/71 66/72/71
f 13/8/74 62/90/74 63/73/74
f 25/20/82 45/66/82 43/76/82
f 34/40/83 28/31/83 43/76/83
f 8/57/85 35/43/85 48/65/85
f 8/57/86 46/79/86 47/78/86
f 38/58/88 7/60/88 50/80/88
f 33/38/89 49/37/89 50/80/89
f 39/61/91 11/63/91 53/83/91
f 37/50/92 52/49/92 53/83/92
f 6/27/94 56/86/94 57/87/94
f 31/29/95 55/35/95 56/86/95
f 2/4/97 59/88/97 60/89/97
f 16/6/98 58/17/98 59/88/98
f 19/22/100 63/73/100 61/91/100
f 3/18/101 61/106/101 62/92/101
f 21/25/103 66/72/103 64/94/103
f 18/9/104 4/21/104 64/94/104
f 20/14/106 69/71/106 67/96/106
f 17/15/107 67/96/107 68/97/107
f 10/45/109 71/99/109 72/98/109
f 32/33/110 70/64/110 71/99/110
f 12/52/112 42/51/112 75/102/112
f 12/56/113 73/107/113 74/104/113
f 29/26/115 78/68/115 77/105/115
f 9/42/116 77/105/116 76/67/116
